<svg id="Calque_1" data-name="Calque 1" xmlns="http://www.w3.org/2000/svg" viewBox="0 0 283.18 53.28">
    <path fill="#FFF" d="M45.15,37.15c0,9.65-7.92,16.13-19.95,16.13H0V0H25.78c9.65,0,16.13,5.76,16.13,14.47,0,4.11-2.16,7.64-6,10.23C41.69,27,45.15,31.47,45.15,37.15ZM14.83,19.8h7.28c2.73,0,4.53-1.51,4.53-3.81s-1.73-3.75-4.17-3.75H14.83ZM29.88,36.51c0-2.67-2.16-4.47-5.25-4.47h-9.8v9h9.65C27.72,41,29.88,39.24,29.88,36.51Z"/>
    <path fill="#FFF" d="M92.81,41V53.28h-40V0H92.31V12.24H67.61v8.07h22V32.55h-22V41Z"/>
    <path fill="#FFF" d="M142.71,12.24H127.37v41H112.54v-41H97.2V0h45.51Z"/>
    <path fill="#FFF" d="M193.83,12.24H178.49v41H163.65v-41H148.32V0h45.51Z"/>
    <path fill="#FFF" d="M237.1,41V53.28H200.37V0h14.84V41Z"/>
    <path fill="#FFF" d="M283.68,41V53.28h-40V0h39.54V12.24h-24.7v8.07h22V32.55h-22V41Z"/>
</svg>