<svg width="223" height="206" viewBox="0 0 223 206" fill="none" xmlns="http://www.w3.org/2000/svg">
<path d="M111.5 12.875C57.6229 12.875 13.9375 53.2301 13.9375 103C13.9375 152.77 57.6229 193.125 111.5 193.125C165.377 193.125 209.062 152.77 209.062 103C209.062 53.2301 165.377 12.875 111.5 12.875ZM111.5 177.836C66.7693 177.836 30.4883 144.321 30.4883 103C30.4883 61.6793 66.7693 28.1641 111.5 28.1641C156.231 28.1641 192.512 61.6793 192.512 103C192.512 144.321 156.231 177.836 111.5 177.836ZM121.888 98.3328L116.356 97.1459V70.1285C124.632 71.1746 129.749 75.9625 130.621 81.8367C130.729 82.6414 131.47 83.2248 132.341 83.2248H142.119C143.142 83.2248 143.948 82.4 143.861 81.4545C142.533 68.9215 131.361 60.8746 116.443 59.4865V52.9082C116.443 52.023 115.659 51.2988 114.701 51.2988H108.582C107.624 51.2988 106.84 52.023 106.84 52.9082V59.5469C91.4213 60.935 79.3566 68.8008 79.3566 83.4863C79.3566 97.0855 90.2018 103.644 101.591 106.158L106.97 107.426V136.133C97.3447 134.946 91.9439 130.198 90.8333 123.801C90.7026 123.037 89.9622 122.473 89.1129 122.473H79.0518C78.0282 122.473 77.2225 123.278 77.3096 124.224C78.2896 135.288 87.3707 145.467 106.753 146.775V153.092C106.753 153.977 107.537 154.701 108.495 154.701H114.679C115.638 154.701 116.422 153.977 116.422 153.072L116.378 146.695C133.43 145.306 145.625 136.877 145.625 121.749C145.603 107.788 136 101.552 121.888 98.3328V98.3328ZM106.949 95.0738C105.729 94.752 104.705 94.4502 103.682 94.068C96.3212 91.6137 92.9021 87.6506 92.9021 82.5408C92.9021 75.2383 98.8909 71.074 106.949 70.1285V95.0738ZM116.356 136.193V109.297C117.031 109.478 117.641 109.619 118.273 109.739C128.573 112.636 132.036 116.66 132.036 122.836C132.036 130.701 125.633 135.429 116.356 136.193Z" fill="#F3EBDD"/>
</svg>
