<svg width="264" height="256" viewBox="0 0 264 256" fill="none" xmlns="http://www.w3.org/2000/svg">
<g filter="url(#filter0_d_58_31)">
<path d="M28.4611 194.757H235.539C239.823 194.757 243.304 191.274 243.304 186.992V53.8699C243.304 49.5878 239.823 46.1045 235.539 46.1045H28.4611C24.1791 46.1045 20.6957 49.5878 20.6957 53.8699V186.992C20.6957 191.274 24.1813 194.757 28.4611 194.757ZM27.3518 53.8699C27.3518 53.2576 27.8488 52.7606 28.4611 52.7606H235.539C236.151 52.7606 236.648 53.2576 236.648 53.8699V186.992C236.648 187.604 236.151 188.101 235.539 188.101H28.4611C27.8488 188.101 27.3518 187.604 27.3518 186.992V53.8699ZM260 200.699V206.913C260 208.56 258.664 209.895 257.018 209.895H6.98193C5.33566 209.895 4 208.56 4 206.913V200.699H109.137C109.657 202.432 111.245 203.703 113.147 203.703H150.856C152.755 203.703 154.343 202.434 154.865 200.699H260Z" fill="#F3EBDD"/>
<g clip-path="url(#clip0_58_31)">
<path d="M168.356 140.927L155.684 128.255L161.899 122.04C162.438 121.502 162.659 120.723 162.484 119.982C162.309 119.24 161.763 118.643 161.04 118.402L123.752 105.972C122.962 105.709 122.092 105.914 121.503 106.503C120.914 107.092 120.709 107.962 120.972 108.752L133.402 146.041C133.643 146.763 134.24 147.309 134.982 147.484C135.723 147.659 136.502 147.438 137.04 146.899L143.255 140.685L155.927 153.357C156.356 153.786 156.918 154 157.481 154C158.043 154 158.605 153.786 159.034 153.357L168.357 144.034C169.215 143.176 169.215 141.785 168.356 140.927ZM157.481 148.695L144.808 136.023C143.95 135.165 142.559 135.165 141.701 136.023L136.447 141.278L126.531 111.531L156.278 121.447L151.023 126.701C150.166 127.558 150.165 128.951 151.023 129.809L163.695 142.481L157.481 148.695Z" fill="#F3EBDD"/>
<path d="M122.564 96.5781C123.778 96.5781 124.762 95.5943 124.762 94.3809V81.1973C124.762 79.9838 123.778 79 122.564 79C121.351 79 120.367 79.9838 120.367 81.1973V94.3809C120.367 95.5943 121.351 96.5781 122.564 96.5781Z" fill="#F3EBDD"/>
<path d="M105.474 87.3664C104.616 86.5083 103.224 86.5083 102.366 87.3664C101.508 88.2245 101.508 89.6156 102.366 90.4737L111.689 99.796C112.546 100.654 113.938 100.654 114.796 99.796C115.654 98.9379 115.654 97.5467 114.796 96.6886L105.474 87.3664Z" fill="#F3EBDD"/>
<path d="M111.689 115.333L102.366 124.655C101.508 125.513 101.508 126.904 102.366 127.763C103.224 128.621 104.616 128.621 105.474 127.763L114.796 118.44C115.654 117.582 115.654 116.191 114.796 115.333C113.938 114.475 112.546 114.475 111.689 115.333Z" fill="#F3EBDD"/>
<path d="M133.44 99.796L142.763 90.4737C143.621 89.6156 143.621 88.2245 142.763 87.3664C141.905 86.5083 140.513 86.5083 139.655 87.3664L130.333 96.6886C129.475 97.5467 129.475 98.9379 130.333 99.796C131.191 100.654 132.582 100.654 133.44 99.796Z" fill="#F3EBDD"/>
<path d="M111.578 107.564C111.578 106.351 110.594 105.367 109.381 105.367H96.1973C94.9838 105.367 94 106.351 94 107.564C94 108.778 94.9838 109.762 96.1973 109.762H109.381C110.594 109.762 111.578 108.778 111.578 107.564Z" fill="#F3EBDD"/>
</g>
</g>
<defs>
<filter id="filter0_d_58_31" x="0" y="0" width="264" height="264" filterUnits="userSpaceOnUse" color-interpolation-filters="sRGB">
<feFlood flood-opacity="0" result="BackgroundImageFix"/>
<feColorMatrix in="SourceAlpha" type="matrix" values="0 0 0 0 0 0 0 0 0 0 0 0 0 0 0 0 0 0 127 0" result="hardAlpha"/>
<feOffset dy="4"/>
<feGaussianBlur stdDeviation="2"/>
<feComposite in2="hardAlpha" operator="out"/>
<feColorMatrix type="matrix" values="0 0 0 0 0 0 0 0 0 0 0 0 0 0 0 0 0 0 0.25 0"/>
<feBlend mode="normal" in2="BackgroundImageFix" result="effect1_dropShadow_58_31"/>
<feBlend mode="normal" in="SourceGraphic" in2="effect1_dropShadow_58_31" result="shape"/>
</filter>
<clipPath id="clip0_58_31">
<rect width="75" height="75" fill="white" transform="translate(94 79)"/>
</clipPath>
</defs>
</svg>
